<svg width="15" height="14" viewBox="0 0 15 14" fill="none" xmlns="http://www.w3.org/2000/svg">
<g clip-path="url(#clip0_1_27)">
<path d="M5.4172 0.5H2.08291C1.67262 0.500397 1.27926 0.652729 0.989195 0.923553C0.699126 1.19438 0.53605 1.56156 0.535767 1.9445V5.0555C0.53605 5.43844 0.699126 5.80562 0.989195 6.07645C1.27926 6.34727 1.67262 6.4996 2.08291 6.5H5.4172C5.82749 6.4996 6.22084 6.34727 6.51091 6.07645C6.80098 5.80562 6.96406 5.43844 6.96434 5.0555V1.9445C6.96406 1.56156 6.80098 1.19438 6.51091 0.923553C6.22084 0.652729 5.82749 0.500397 5.4172 0.5ZM5.89291 5.0555C5.89291 5.1733 5.84281 5.28629 5.75361 5.36963C5.66441 5.45298 5.54341 5.49987 5.4172 5.5H2.08291C1.95669 5.49987 1.83569 5.45298 1.7465 5.36963C1.6573 5.28629 1.6072 5.1733 1.6072 5.0555V1.9445C1.6072 1.8267 1.6573 1.71371 1.7465 1.63037C1.83569 1.54702 1.95669 1.50013 2.08291 1.5H5.4172C5.54341 1.50013 5.66441 1.54702 5.75361 1.63037C5.84281 1.71371 5.89291 1.8267 5.89291 1.9445V5.0555Z" fill="white"/>
<path d="M12.9172 0.5H9.58291C9.17262 0.500397 8.77926 0.652729 8.48919 0.923553C8.19913 1.19438 8.03605 1.56156 8.03577 1.9445V5.0555C8.03605 5.43844 8.19913 5.80562 8.48919 6.07645C8.77926 6.34727 9.17262 6.4996 9.58291 6.5H12.9172C13.3275 6.4996 13.7208 6.34727 14.0109 6.07645C14.301 5.80562 14.4641 5.43844 14.4643 5.0555V1.9445C14.4641 1.56156 14.301 1.19438 14.0109 0.923553C13.7208 0.652729 13.3275 0.500397 12.9172 0.5ZM13.3929 5.0555C13.3929 5.1733 13.3428 5.28629 13.2536 5.36963C13.1644 5.45298 13.0434 5.49987 12.9172 5.5H9.58291C9.45669 5.49987 9.33569 5.45298 9.2465 5.36963C9.1573 5.28629 9.1072 5.1733 9.1072 5.0555V1.9445C9.1072 1.8267 9.1573 1.71371 9.2465 1.63037C9.33569 1.54702 9.45669 1.50013 9.58291 1.5H12.9172C13.0434 1.50013 13.1644 1.54702 13.2536 1.63037C13.3428 1.71371 13.3929 1.8267 13.3929 1.9445V5.0555Z" fill="white"/>
<path d="M12.9172 7.5H9.58291C9.17262 7.5004 8.77926 7.65273 8.48919 7.92355C8.19913 8.19438 8.03605 8.56156 8.03577 8.9445V12.0555C8.03605 12.4384 8.19913 12.8056 8.48919 13.0764C8.77926 13.3473 9.17262 13.4996 9.58291 13.5H12.9172C13.3275 13.4996 13.7208 13.3473 14.0109 13.0764C14.301 12.8056 14.4641 12.4384 14.4643 12.0555V8.9445C14.4641 8.56156 14.301 8.19438 14.0109 7.92355C13.7208 7.65273 13.3275 7.5004 12.9172 7.5ZM13.3929 12.0555C13.3929 12.1733 13.3428 12.2863 13.2536 12.3696C13.1644 12.453 13.0434 12.4999 12.9172 12.5H9.58291C9.45669 12.4999 9.33569 12.453 9.2465 12.3696C9.1573 12.2863 9.1072 12.1733 9.1072 12.0555V8.9445C9.1072 8.8267 9.1573 8.71371 9.2465 8.63037C9.33569 8.54702 9.45669 8.50013 9.58291 8.5H12.9172C13.0434 8.50013 13.1644 8.54702 13.2536 8.63037C13.3428 8.71371 13.3929 8.8267 13.3929 8.9445V12.0555Z" fill="white"/>
<path d="M5.4172 7.5H2.08291C1.67262 7.5004 1.27926 7.65273 0.989195 7.92355C0.699126 8.19438 0.53605 8.56156 0.535767 8.9445V12.0555C0.53605 12.4384 0.699126 12.8056 0.989195 13.0764C1.27926 13.3473 1.67262 13.4996 2.08291 13.5H5.4172C5.82749 13.4996 6.22084 13.3473 6.51091 13.0764C6.80098 12.8056 6.96406 12.4384 6.96434 12.0555V8.9445C6.96406 8.56156 6.80098 8.19438 6.51091 7.92355C6.22084 7.65273 5.82749 7.5004 5.4172 7.5ZM5.89291 12.0555C5.89291 12.1733 5.84281 12.2863 5.75361 12.3696C5.66441 12.453 5.54341 12.4999 5.4172 12.5H2.08291C1.95669 12.4999 1.83569 12.453 1.7465 12.3696C1.6573 12.2863 1.6072 12.1733 1.6072 12.0555V8.9445C1.6072 8.8267 1.6573 8.71371 1.7465 8.63037C1.83569 8.54702 1.95669 8.50013 2.08291 8.5H5.4172C5.54341 8.50013 5.66441 8.54702 5.75361 8.63037C5.84281 8.71371 5.89291 8.8267 5.89291 8.9445V12.0555Z" fill="white"/>
</g>
<defs>
<clipPath id="clip0_1_27">
<rect width="15" height="14" fill="white"/>
</clipPath>
</defs>
</svg>
