<svg width="15" height="15" viewBox="0 0 15 15" fill="none" xmlns="http://www.w3.org/2000/svg">
<path d="M11.25 13.75H3.75C3.05964 13.75 2.5 13.1904 2.5 12.5V2.5C2.5 1.80964 3.05964 1.25 3.75 1.25H8.125C8.13181 1.2503 8.13854 1.25156 8.145 1.25375C8.15111 1.25564 8.15739 1.25689 8.16375 1.2575C8.21887 1.26103 8.27328 1.27175 8.32562 1.28937L8.34312 1.295C8.35729 1.2998 8.37108 1.30565 8.38438 1.3125C8.45247 1.34276 8.51451 1.38512 8.5675 1.4375L12.3175 5.1875C12.3699 5.24049 12.4122 5.30253 12.4425 5.37063C12.4487 5.38438 12.4531 5.39875 12.4581 5.41313L12.4637 5.42937C12.4812 5.48149 12.4915 5.53574 12.4944 5.59063C12.4953 5.59637 12.4968 5.60201 12.4987 5.6075C12.4999 5.61326 12.5003 5.61914 12.5001 5.625V12.5C12.5001 13.1904 11.9404 13.75 11.25 13.75ZM3.75 2.5V12.5H11.25V6.25H8.125C7.77982 6.25 7.5 5.97018 7.5 5.625V2.5H3.75ZM8.75 3.38375V5H10.3663L8.75 3.38375Z" fill="#343A40"/>
</svg>
