<svg width="32" height="24" viewBox="0 0 32 24" fill="none" xmlns="http://www.w3.org/2000/svg">
<path d="M7.74219 11.2578H9.89062C9.83333 12.0182 9.6224 12.6927 9.25781 13.2812C8.89323 13.8646 8.38542 14.3229 7.73438 14.6562C7.08333 14.9896 6.29427 15.1562 5.36719 15.1562C4.65365 15.1562 4.01042 15.0312 3.4375 14.7812C2.86979 14.526 2.38281 14.1641 1.97656 13.6953C1.57552 13.2214 1.26823 12.6536 1.05469 11.9922C0.841146 11.3255 0.734375 10.5781 0.734375 9.75V8.88281C0.734375 8.05469 0.84375 7.30729 1.0625 6.64062C1.28125 5.97396 1.59375 5.40625 2 4.9375C2.41146 4.46354 2.90365 4.09896 3.47656 3.84375C4.05469 3.58854 4.70052 3.46094 5.41406 3.46094C6.34115 3.46094 7.125 3.63281 7.76562 3.97656C8.40625 4.3151 8.90365 4.78125 9.25781 5.375C9.61198 5.96875 9.82552 6.65104 9.89844 7.42188H7.75C7.70833 6.94271 7.60417 6.53646 7.4375 6.20312C7.27604 5.86979 7.03125 5.61719 6.70312 5.44531C6.38021 5.26823 5.95052 5.17969 5.41406 5.17969C4.9974 5.17969 4.63021 5.25781 4.3125 5.41406C4 5.57031 3.73958 5.80469 3.53125 6.11719C3.32292 6.42448 3.16667 6.8099 3.0625 7.27344C2.95833 7.73177 2.90625 8.26302 2.90625 8.86719V9.75C2.90625 10.3281 2.95312 10.8464 3.04688 11.3047C3.14062 11.763 3.28646 12.151 3.48438 12.4688C3.68229 12.7865 3.9375 13.0286 4.25 13.1953C4.5625 13.362 4.9349 13.4453 5.36719 13.4453C5.89323 13.4453 6.32031 13.362 6.64844 13.1953C6.98177 13.0286 7.23438 12.7839 7.40625 12.4609C7.58333 12.138 7.69531 11.737 7.74219 11.2578ZM19.1016 8.32031V10.0078H13.1172V8.32031H19.1016ZM13.7031 3.625V15H11.5547V3.625H13.7031ZM20.6953 3.625V15H18.5469V3.625H20.6953Z" fill="white"/>
<path d="M30.7188 15.8516V17.4766H22.5234L22.4375 16.2266L27.2578 8.625H28.9062L27.125 11.6484L24.5391 15.8516H30.7188ZM29.3672 8.625V20H27.2969V8.625H29.3672Z" fill="white"/>
</svg>
