<svg width="36" height="24" viewBox="0 0 36 24" fill="none" xmlns="http://www.w3.org/2000/svg">
<path d="M10.2266 3.625V15H8.07031L3.23438 7.10938V15H1.08594V3.625H3.23438L8.08594 11.5234V3.625H10.2266Z" fill="white"/>
<path d="M34.2969 9.02344V9.60938C34.2969 10.4688 34.1823 11.2422 33.9531 11.9297C33.724 12.612 33.3984 13.1927 32.9766 13.6719C32.5547 14.151 32.0521 14.5182 31.4688 14.7734C30.8854 15.0286 30.237 15.1562 29.5234 15.1562C28.8203 15.1562 28.1745 15.0286 27.5859 14.7734C27.0026 14.5182 26.4974 14.151 26.0703 13.6719C25.6432 13.1927 25.3125 12.612 25.0781 11.9297C24.8438 11.2422 24.7266 10.4688 24.7266 9.60938V9.02344C24.7266 8.15885 24.8438 7.38542 25.0781 6.70312C25.3125 6.02083 25.6406 5.4401 26.0625 4.96094C26.4844 4.47656 26.987 4.10677 27.5703 3.85156C28.1589 3.59635 28.8047 3.46875 29.5078 3.46875C30.2214 3.46875 30.8698 3.59635 31.4531 3.85156C32.0365 4.10677 32.5391 4.47656 32.9609 4.96094C33.388 5.4401 33.7161 6.02083 33.9453 6.70312C34.1797 7.38542 34.2969 8.15885 34.2969 9.02344ZM32.125 9.60938V9.00781C32.125 8.38802 32.0677 7.84375 31.9531 7.375C31.8385 6.90104 31.6693 6.5026 31.4453 6.17969C31.2214 5.85677 30.9453 5.61458 30.6172 5.45312C30.2891 5.28646 29.9193 5.20312 29.5078 5.20312C29.0911 5.20312 28.7214 5.28646 28.3984 5.45312C28.0807 5.61458 27.8099 5.85677 27.5859 6.17969C27.362 6.5026 27.1901 6.90104 27.0703 7.375C26.9557 7.84375 26.8984 8.38802 26.8984 9.00781V9.60938C26.8984 10.224 26.9557 10.7682 27.0703 11.2422C27.1901 11.7161 27.362 12.1172 27.5859 12.4453C27.8151 12.7682 28.0911 13.013 28.4141 13.1797C28.737 13.3464 29.1068 13.4297 29.5234 13.4297C29.9401 13.4297 30.3099 13.3464 30.6328 13.1797C30.9557 13.013 31.2266 12.7682 31.4453 12.4453C31.6693 12.1172 31.8385 11.7161 31.9531 11.2422C32.0677 10.7682 32.125 10.224 32.125 9.60938Z" fill="white"/>
<path d="M22.5234 18.375V20H14.8203V18.6094L18.5156 14.6172C18.901 14.1797 19.2057 13.7995 19.4297 13.4766C19.6536 13.1536 19.8125 12.862 19.9062 12.6016C20.0052 12.3359 20.0547 12.0833 20.0547 11.8438C20.0547 11.4948 19.9922 11.1901 19.8672 10.9297C19.7422 10.6641 19.5599 10.4583 19.3203 10.3125C19.0859 10.1667 18.7969 10.0938 18.4531 10.0938C18.0729 10.0938 17.7474 10.1823 17.4766 10.3594C17.2109 10.5312 17.0078 10.7708 16.8672 11.0781C16.7318 11.3854 16.6641 11.737 16.6641 12.1328H14.5938C14.5938 11.4609 14.75 10.849 15.0625 10.2969C15.375 9.73958 15.8229 9.29427 16.4062 8.96094C16.9896 8.6276 17.6823 8.46094 18.4844 8.46094C19.2656 8.46094 19.9271 8.59115 20.4688 8.85156C21.0104 9.10677 21.4219 9.47135 21.7031 9.94531C21.9844 10.4193 22.125 10.9844 22.125 11.6406C22.125 12.0052 22.0651 12.3646 21.9453 12.7188C21.8255 13.0729 21.6562 13.4245 21.4375 13.7734C21.224 14.1172 20.9688 14.4661 20.6719 14.8203C20.375 15.1745 20.0443 15.5365 19.6797 15.9062L17.4609 18.375H22.5234Z" fill="white"/>
</svg>
