<svg width="32" height="24" viewBox="0 0 32 24" fill="none" xmlns="http://www.w3.org/2000/svg">
<path d="M7.74219 11.2578H9.89062C9.83333 12.0182 9.6224 12.6927 9.25781 13.2812C8.89323 13.8646 8.38542 14.3229 7.73438 14.6562C7.08333 14.9896 6.29427 15.1562 5.36719 15.1562C4.65365 15.1562 4.01042 15.0312 3.4375 14.7812C2.86979 14.526 2.38281 14.1641 1.97656 13.6953C1.57552 13.2214 1.26823 12.6536 1.05469 11.9922C0.841146 11.3255 0.734375 10.5781 0.734375 9.75V8.88281C0.734375 8.05469 0.84375 7.30729 1.0625 6.64062C1.28125 5.97396 1.59375 5.40625 2 4.9375C2.41146 4.46354 2.90365 4.09896 3.47656 3.84375C4.05469 3.58854 4.70052 3.46094 5.41406 3.46094C6.34115 3.46094 7.125 3.63281 7.76562 3.97656C8.40625 4.3151 8.90365 4.78125 9.25781 5.375C9.61198 5.96875 9.82552 6.65104 9.89844 7.42188H7.75C7.70833 6.94271 7.60417 6.53646 7.4375 6.20312C7.27604 5.86979 7.03125 5.61719 6.70312 5.44531C6.38021 5.26823 5.95052 5.17969 5.41406 5.17969C4.9974 5.17969 4.63021 5.25781 4.3125 5.41406C4 5.57031 3.73958 5.80469 3.53125 6.11719C3.32292 6.42448 3.16667 6.8099 3.0625 7.27344C2.95833 7.73177 2.90625 8.26302 2.90625 8.86719V9.75C2.90625 10.3281 2.95312 10.8464 3.04688 11.3047C3.14062 11.763 3.28646 12.151 3.48438 12.4688C3.68229 12.7865 3.9375 13.0286 4.25 13.1953C4.5625 13.362 4.9349 13.4453 5.36719 13.4453C5.89323 13.4453 6.32031 13.362 6.64844 13.1953C6.98177 13.0286 7.23438 12.7839 7.40625 12.4609C7.58333 12.138 7.69531 11.737 7.74219 11.2578ZM20.7656 9.02344V9.60938C20.7656 10.4688 20.651 11.2422 20.4219 11.9297C20.1927 12.612 19.8672 13.1927 19.4453 13.6719C19.0234 14.151 18.5208 14.5182 17.9375 14.7734C17.3542 15.0286 16.7057 15.1562 15.9922 15.1562C15.2891 15.1562 14.6432 15.0286 14.0547 14.7734C13.4714 14.5182 12.9661 14.151 12.5391 13.6719C12.112 13.1927 11.7812 12.612 11.5469 11.9297C11.3125 11.2422 11.1953 10.4688 11.1953 9.60938V9.02344C11.1953 8.15885 11.3125 7.38542 11.5469 6.70312C11.7812 6.02083 12.1094 5.4401 12.5312 4.96094C12.9531 4.47656 13.4557 4.10677 14.0391 3.85156C14.6276 3.59635 15.2734 3.46875 15.9766 3.46875C16.6901 3.46875 17.3385 3.59635 17.9219 3.85156C18.5052 4.10677 19.0078 4.47656 19.4297 4.96094C19.8568 5.4401 20.1849 6.02083 20.4141 6.70312C20.6484 7.38542 20.7656 8.15885 20.7656 9.02344ZM18.5938 9.60938V9.00781C18.5938 8.38802 18.5365 7.84375 18.4219 7.375C18.3073 6.90104 18.138 6.5026 17.9141 6.17969C17.6901 5.85677 17.4141 5.61458 17.0859 5.45312C16.7578 5.28646 16.388 5.20312 15.9766 5.20312C15.5599 5.20312 15.1901 5.28646 14.8672 5.45312C14.5495 5.61458 14.2786 5.85677 14.0547 6.17969C13.8307 6.5026 13.6589 6.90104 13.5391 7.375C13.4245 7.84375 13.3672 8.38802 13.3672 9.00781V9.60938C13.3672 10.224 13.4245 10.7682 13.5391 11.2422C13.6589 11.7161 13.8307 12.1172 14.0547 12.4453C14.2839 12.7682 14.5599 13.013 14.8828 13.1797C15.2057 13.3464 15.5755 13.4297 15.9922 13.4297C16.4089 13.4297 16.7786 13.3464 17.1016 13.1797C17.4245 13.013 17.6953 12.7682 17.9141 12.4453C18.138 12.1172 18.3073 11.7161 18.4219 11.2422C18.5365 10.7682 18.5938 10.224 18.5938 9.60938Z" fill="white"/>
<path d="M30.5234 18.375V20H22.8203V18.6094L26.5156 14.6172C26.901 14.1797 27.2057 13.7995 27.4297 13.4766C27.6536 13.1536 27.8125 12.862 27.9062 12.6016C28.0052 12.3359 28.0547 12.0833 28.0547 11.8438C28.0547 11.4948 27.9922 11.1901 27.8672 10.9297C27.7422 10.6641 27.5599 10.4583 27.3203 10.3125C27.0859 10.1667 26.7969 10.0938 26.4531 10.0938C26.0729 10.0938 25.7474 10.1823 25.4766 10.3594C25.2109 10.5312 25.0078 10.7708 24.8672 11.0781C24.7318 11.3854 24.6641 11.737 24.6641 12.1328H22.5938C22.5938 11.4609 22.75 10.849 23.0625 10.2969C23.375 9.73958 23.8229 9.29427 24.4062 8.96094C24.9896 8.6276 25.6823 8.46094 26.4844 8.46094C27.2656 8.46094 27.9271 8.59115 28.4688 8.85156C29.0104 9.10677 29.4219 9.47135 29.7031 9.94531C29.9844 10.4193 30.125 10.9844 30.125 11.6406C30.125 12.0052 30.0651 12.3646 29.9453 12.7188C29.8255 13.0729 29.6562 13.4245 29.4375 13.7734C29.224 14.1172 28.9688 14.4661 28.6719 14.8203C28.375 15.1745 28.0443 15.5365 27.6797 15.9062L25.4609 18.375H30.5234Z" fill="white"/>
</svg>
