<svg width="15" height="14" viewBox="0 0 15 14" fill="none" xmlns="http://www.w3.org/2000/svg">
<g clip-path="url(#clip0_1_41)">
<path d="M8.57142 0.5C8.42934 0.5 8.29308 0.552678 8.19261 0.646447C8.09215 0.740215 8.03571 0.867392 8.03571 1V6C8.03571 6.13261 8.09215 6.25979 8.19261 6.35355C8.29308 6.44732 8.42934 6.5 8.57142 6.5H13.9286C14.0706 6.5 14.2069 6.44732 14.3074 6.35355C14.4078 6.25979 14.4643 6.13261 14.4643 6C14.4624 4.54184 13.841 3.14389 12.7363 2.11281C11.6315 1.08174 10.1337 0.50172 8.57142 0.5ZM9.10713 5.5V1.528C10.1934 1.6429 11.2059 2.0983 11.979 2.81977C12.7521 3.54125 13.2401 4.48613 13.3634 5.5H9.10713Z" fill="#0D1840"/>
<path d="M11.7856 7.5385H6.96419V3C6.96419 2.86739 6.90775 2.74022 6.80729 2.64645C6.70682 2.55268 6.57056 2.5 6.42848 2.5C5.64021 2.4997 4.85989 2.64701 4.13371 2.9332C3.40753 3.2194 2.75025 3.63867 2.20078 4.16619C1.65132 4.69371 1.22083 5.31876 0.934809 6.00434C0.648788 6.68992 0.513047 7.42208 0.53562 8.1575C0.595279 9.55506 1.2162 10.8805 2.27497 11.8703C3.33373 12.8602 4.7528 13.442 6.25009 13.5H6.43062C7.98528 13.4995 9.47674 12.9257 10.5801 11.9034C11.6835 10.8812 12.3093 9.49346 12.3213 8.0425C12.3219 7.9765 12.3085 7.91105 12.2818 7.84993C12.2551 7.7888 12.2158 7.73321 12.166 7.68636C12.1161 7.6395 12.0569 7.60231 11.9916 7.57694C11.9263 7.55156 11.8563 7.5385 11.7856 7.5385ZM9.77134 11.2415C9.31005 11.6593 8.76331 11.986 8.16375 12.2022C7.56419 12.4185 6.92411 12.5197 6.28169 12.5C5.05682 12.4525 3.89593 11.9766 3.02981 11.1669C2.16369 10.3571 1.65578 9.27279 1.60705 8.1295C1.57272 7.00072 1.99436 5.90116 2.78826 5.04903C3.58217 4.19691 4.69031 3.65452 5.89276 3.5295V8.0405C5.89276 8.17311 5.94921 8.30028 6.04967 8.39405C6.15014 8.48782 6.2864 8.5405 6.42848 8.5405H11.214C11.0839 9.5699 10.5738 10.5249 9.77134 11.2415Z" fill="#0D1840"/>
</g>
<defs>
<clipPath id="clip0_1_41">
<rect width="15" height="14" fill="white"/>
</clipPath>
</defs>
</svg>
