<svg width="15" height="15" viewBox="0 0 15 15" fill="none" xmlns="http://www.w3.org/2000/svg">
<path d="M8.63751 13.75H6.36251C6.06883 13.75 5.81473 13.5456 5.75188 13.2588L5.49751 12.0813C5.15817 11.9326 4.8364 11.7466 4.53814 11.5269L3.39001 11.8925C3.11001 11.9818 2.80563 11.8639 2.65876 11.6094L1.51876 9.64C1.3735 9.38532 1.42355 9.06405 1.63939 8.86563L2.53001 8.05313C2.48951 7.68507 2.48951 7.31368 2.53001 6.94562L1.63939 6.135C1.42323 5.93648 1.37316 5.61483 1.51876 5.36L2.65626 3.38937C2.80313 3.13481 3.10751 3.01696 3.38751 3.10625L4.53563 3.47187C4.68817 3.35885 4.84697 3.25452 5.01126 3.15938C5.16897 3.07043 5.33128 2.9899 5.49751 2.91812L5.75251 1.74187C5.81505 1.45498 6.06888 1.25031 6.36251 1.25H8.63751C8.93114 1.25031 9.18497 1.45498 9.24751 1.74187L9.50501 2.91875C9.6805 2.99595 9.85141 3.08317 10.0169 3.18C10.1712 3.26926 10.3204 3.36712 10.4638 3.47312L11.6125 3.1075C11.8923 3.01854 12.1963 3.13635 12.3431 3.39062L13.4806 5.36125C13.6259 5.61593 13.5758 5.9372 13.36 6.13562L12.4694 6.94812C12.5099 7.31618 12.5099 7.68757 12.4694 8.05562L13.36 8.86812C13.5758 9.06655 13.6259 9.38782 13.4806 9.6425L12.3431 11.6131C12.1963 11.8674 11.8923 11.9852 11.6125 11.8962L10.4638 11.5306C10.3184 11.6377 10.1673 11.7368 10.0113 11.8275C9.8474 11.9224 9.67839 12.0082 9.50501 12.0844L9.24751 13.2588C9.18471 13.5454 8.93095 13.7498 8.63751 13.75ZM4.76251 10.1431L5.27501 10.5181C5.39054 10.6032 5.51096 10.6815 5.63564 10.7525C5.75295 10.8204 5.87374 10.8822 5.99751 10.9375L6.58064 11.1931L6.86626 12.5H8.13501L8.42063 11.1925L9.00376 10.9369C9.25832 10.8246 9.49995 10.685 9.72438 10.5206L10.2375 10.1456L11.5131 10.5519L12.1475 9.45312L11.1581 8.55125L11.2281 7.91875C11.2589 7.6421 11.2589 7.3629 11.2281 7.08625L11.1581 6.45375L12.1481 5.55L11.5131 4.45062L10.2375 4.85687L9.72438 4.48187C9.49988 4.31669 9.25829 4.1761 9.00376 4.0625L8.42063 3.80687L8.13501 2.5H6.86626L6.57938 3.8075L5.99751 4.0625C5.87364 4.1169 5.75283 4.17804 5.63564 4.24563C5.51172 4.31646 5.39194 4.39429 5.27689 4.47875L4.76376 4.85375L3.48876 4.4475L2.85314 5.55L3.84251 6.45062L3.77251 7.08375C3.74176 7.3604 3.74176 7.6396 3.77251 7.91625L3.84251 8.54875L2.85314 9.45063L3.48751 10.5494L4.76251 10.1431ZM7.49751 10C6.1168 10 4.99751 8.88071 4.99751 7.5C4.99751 6.11929 6.1168 5 7.49751 5C8.87822 5 9.99751 6.11929 9.99751 7.5C9.99579 8.88 8.87751 9.99828 7.49751 10ZM7.49751 6.25C6.81463 6.25069 6.25869 6.79928 6.2489 7.48209C6.23912 8.1649 6.77911 8.72919 7.46169 8.74945C8.14427 8.76971 8.71678 8.23844 8.74751 7.55625V7.80625V7.5C8.74751 6.80964 8.18787 6.25 7.49751 6.25Z" fill="#343A40"/>
</svg>
