<svg width="15" height="15" viewBox="0 0 15 15" fill="none" xmlns="http://www.w3.org/2000/svg">
<path d="M3.125 13.125H1.875V12.5C1.87776 10.0849 3.8349 8.12776 6.25 8.125H8.75C11.1651 8.12776 13.1222 10.0849 13.125 12.5V13.125H11.875V12.5C11.8729 10.775 10.475 9.37707 8.75 9.375H6.25C4.52497 9.37707 3.12707 10.775 3.125 12.5V13.125ZM7.5 7.5C5.77411 7.5 4.375 6.10089 4.375 4.375C4.375 2.64911 5.77411 1.25 7.5 1.25C9.22589 1.25 10.625 2.64911 10.625 4.375C10.6229 6.10003 9.22503 7.49793 7.5 7.5ZM7.5 2.5C6.46447 2.5 5.625 3.33947 5.625 4.375C5.625 5.41053 6.46447 6.25 7.5 6.25C8.53553 6.25 9.375 5.41053 9.375 4.375C9.375 3.33947 8.53553 2.5 7.5 2.5Z" fill="#343A40"/>
</svg>
